<?xml version="1.0" encoding="utf-8"?>
<!-- Generator: Adobe Illustrator 17.0.1, SVG Export Plug-In . SVG Version: 6.00 Build 0)  -->
<!DOCTYPE svg PUBLIC "-//W3C//DTD SVG 1.1//EN" "http://www.w3.org/Graphics/SVG/1.1/DTD/svg11.dtd">
<svg version="1.1" id="logo" xmlns="http://www.w3.org/2000/svg" xmlns:xlink="http://www.w3.org/1999/xlink" x="0px" y="0px"
	 width="124px" height="124px" viewBox="0 0 124 124" enable-background="new 0 0 124 124" xml:space="preserve">
<path fill="#B0C263" d="M62,0c-1.727,0-3.453,0.447-5,1.34l-45.033,26c-3.094,1.786-5,5.088-5,8.66v52c0,3.573,1.906,6.874,5,8.66
	l45.033,26c1.547,0.893,3.273,1.34,5,1.34s3.453-0.447,5-1.34l45.033-26c3.094-1.786,5-5.088,5-8.66V36c0-3.573-1.906-6.874-5-8.66
	L67,1.34C65.453,0.447,63.727,0,62,0L62,0z"/>
<path d="M31.393,47.706c-0.348,1.431-1.765,1.796-1.6,3.741c0.444,0.536,0.715,1.243,1.6,1.336c1.513,0.264,1.482-1.011,2.408-1.336
	c0.496-0.838,0.812-1.857,1.332-2.673c0-1.425,0-2.85,0-4.275c-0.222-0.309-0.35-0.716-0.266-1.335
	c-0.725-1.345-1.227-2.663-1.868-4.008c-0.594-1.24-1.628-2.522-1.606-4.276c0.572-1.208,1.697-1.865,2.941-2.404
	c0.387-1.043,2.047-0.854,2.671-1.334c0.234-0.182,0.206-0.708,0.535-0.802c-0.019-1.316-1.1-1.574-2.137-1.87
	c-2.962,0.958-5.508,2.33-7.216,4.541c-0.26,1.074-0.327,2.343-0.265,3.74C29.155,40.327,31.752,42.539,31.393,47.706z
	 M38.609,50.913c0.383,0.149,0.652,0.417,0.8,0.802c2.962-0.155,4.413-1.824,5.077-4.277c0.082-2.755-1.383-3.96-1.336-6.679
	c-0.141-1.298,1.136-1.179,1.068-2.404c-0.512-0.92-1.394-1.606-2.672-1.337c-0.073,0.015-0.419,0.495-0.534,0.533
	c-0.16,0.053-0.372-0.04-0.533,0c-0.492,1.202-0.716,2.672-0.802,4.277c0.38,1.577,0.677,3.239,0.802,5.077
	C39.854,48.239,38.373,48.717,38.609,50.913z M19.904,47.171c0.48,0.944,1.677,1.173,2.137,2.138
	c0.393,1.302,0.573,2.807,2.406,2.671c1.127,0.058,0.942-1.196,1.602-1.602c0.319-3.079-1.579-3.941-2.405-5.88
	c0.591-0.389,0.529-1.43,1.336-1.602c0.64-0.34,1.09-0.872,1.069-1.87c-0.325-1.609-2.74-2.079-3.739-1.603
	c-0.13,0.061-0.17,0.429-0.536,0.266c-1.333,1.606-2.754,3.122-2.405,6.413C19.731,46.279,19.866,46.673,19.904,47.171z
	 M105.672,51.715c-2.37-1.24-7.578-0.912-10.688-0.536c-4.809-0.175-8.845,0.417-12.825,1.068c-2.132,1.255-4.799,1.97-6.414,3.74
	c-1.298,0.394-1.912,1.473-2.94,2.14c-0.998,0.691-1.656,1.726-2.67,2.405c-2.459,3.239-4.881,6.518-8.014,9.083
	c-2.375,3.327-5.513,5.888-9.888,7.216c-1.431-0.528-3.989,0.069-4.808-1.069c0.134-2.093-0.145-3.776-0.267-5.611
	c-0.695-2.333-1.297-4.763-1.871-7.215c-0.298-1.215-0.628-2.4-0.801-3.741c-0.652-0.954-0.169-1.928-0.803-3.207
	c-1.056-0.277-1.571-1.097-2.938-1.068c-1.546,0.209-2.284-0.387-3.741-0.268c-1.374-0.496-2.935-0.804-4.542-1.068
	c-4.67-0.04-9.154,0.106-12.558,1.336c-1.151,0.988-1.811,2.462-2.67,3.741c0.3,4.586-0.134,7.721-0.268,12.291
	c0.272,1.063,0.388,2.282,0.532,3.472c0.472,0.513,0.567,1.393,0.801,2.14c0.625,0.444,0.689,1.45,1.07,2.136
	c0.919,1.219,1.482,2.794,2.139,4.275c1.055,1.26,2.606,2.022,3.206,3.741c1.128,1.275,2.225,2.585,3.207,4.007
	c0.885,0.094,1.159,0.8,1.604,1.336c2.136,0.889,3.762,2.292,6.411,2.672c2.303,0.812,5.831,0.403,8.549,0.801
	c0.344-0.369,1.163-0.263,1.869-0.266c4.362-1.429,7.998-3.58,12.023-5.344c3.649-2.139,6.338-5.242,9.886-7.481
	c4.289-4.797,8.933-9.237,12.559-14.695c2.131-1.255,3.817-2.949,6.144-4.009c1.787-0.441,3.162-1.293,5.343-1.334
	c0.647-0.513,2.149-0.169,3.207-0.268c1.186,0.027,1.568-0.749,2.938-0.533c1.425,0,2.854,0,4.275,0
	c1.801,0.286,2.36-0.67,3.475-1.069c0-0.893,0.867-0.913,0.801-1.871c0-0.89,0-1.781,0-2.673
	C107.185,53.938,106.423,52.829,105.672,51.715z M24.448,58.127c1.091-0.082-0.044,0.369,0.268,1.067
	c-0.228,0.853,0.42,0.827,0.536,1.337c4.573-0.468,9.871-0.33,13.89,0.535c-0.459,0.874-1.54,1.13-2.136,1.869
	c-5.332,0.168-8.679-1.651-13.891-1.603c0.026-1.093-0.037-2.103-1.072-2.138C22.424,58.416,23.625,58.461,24.448,58.127z
	 M87.769,58.393c-1.209,0.036-1.838,0.653-2.939,0.801c-1.213,0.658-2.359,1.38-3.472,2.138c-1.08,0.701-1.938,1.625-3.207,2.136
	c-2.334,2.475-4.236,5.381-6.413,8.018c-2.368,2.439-4.722,4.895-6.946,7.48c-2.291,1.448-4.497,2.983-6.146,5.075
	c-1.308,0.385-1.99,1.396-3.204,1.871c-1.024,0.672-2.248,1.139-3.209,1.87c-2.2,1.093-4.515,2.074-6.946,2.938
	c-1.782,0-3.562,0-5.344,0c0-0.801,0-1.603,0-2.404c0.068-0.781-0.505-0.923-0.803-1.336c-1.401,0.379-1.24,2.324-2.136,3.206
	c-1.318-0.018-2.222-0.449-2.937-1.069c0.167-3.057,3.23-4.578,2.404-7.748c-2.153-0.105-2.374,1.725-3.743,2.404
	c-0.532,1.158-1.4,1.984-1.867,3.207c-1.088-0.539-1.734-1.584-0.536-2.406c0.262-1.165,0.925-1.923,1.338-2.939
	c0.753-0.668,0.847-2.001,1.602-2.67c0.378-0.802,1.235-2.172,0.536-3.206c-2.345,0.126-3.135,2.129-4.81,3.206
	c-0.249,0.73-0.821,1.14-1.068,1.869c-0.628,0.262-0.445,1.339-1.336,1.337c-0.04-0.943-0.766-1.195-0.803-2.137
	c0.065-1.213,1.013-2.166,1.606-3.206c0.833-1.466,2.229-3.078,2.936-5.079c-1.416-0.698-2.712,0.781-3.739,1.339
	c-0.559,0.331-1.008,0.776-1.334,1.334c-0.56,0.003-1.004,1.457-1.339,0.804c0.17-1.991,2.503-2.871,1.87-4.811
	c-0.484-1.237-2.278-0.712-3.205-0.266c0-1.246,0-2.494,0-3.741c4.564,0.869,10.316,0.549,15.499,0.801
	c1.384-0.574,2.441-1.477,3.471-2.403c0.538,0.798,0.559,2.112,0.801,3.207c0.466,0.867,0.334,2.337,0.802,3.204
	c-0.07,2.387,0.008,4.624,0.533,6.413c0.094,0.352,0.469,0.421,0.535,0.802c1.761,2.247,5.405,2.61,9.62,2.404
	c1.928-0.654,3.623-1.539,5.342-2.404c4.41-3.161,7.888-7.252,11.491-11.222c1.527-2.214,3.307-4.172,5.342-5.877
	c1.844-1.897,4.44-3.044,6.679-4.541c1.283-0.056,1.957-0.717,3.477-0.537c0.627-0.085,1.004-0.421,1.87-0.268
	c0.467,0.155,1.568-0.322,1.602,0.268C90.159,58.108,88.464,57.752,87.769,58.393z M94.182,57.056
	c-0.896,0.275-0.416-0.831-0.535-1.335c0.266,0,0.535,0,0.801,0C94.302,56.11,94.763,57.103,94.182,57.056z"/>
</svg>
