<?xml version="1.0" encoding="utf-8"?>
<!-- Generator: Adobe Illustrator 17.0.1, SVG Export Plug-In . SVG Version: 6.00 Build 0)  -->
<!DOCTYPE svg PUBLIC "-//W3C//DTD SVG 1.1//EN" "http://www.w3.org/Graphics/SVG/1.1/DTD/svg11.dtd">
<svg version="1.1" id="linkedin" xmlns="http://www.w3.org/2000/svg" xmlns:xlink="http://www.w3.org/1999/xlink" x="0px" y="0px"
	 width="48px" height="48px" viewBox="0 0 48 48" enable-background="new 0 0 48 48" xml:space="preserve">
<rect x="12.308" y="19.981" fill="#FFFFFF" width="5.153" height="15.487"/>
<path fill="#FFFFFF" d="M16.985,13.288c-0.523-0.504-1.214-0.756-2.072-0.756c-0.859,0-1.559,0.252-2.1,0.756S12,14.427,12,15.193
	c0,0.765,0.261,1.4,0.784,1.904s1.214,0.756,2.072,0.756h0.028c0.859,0,1.559-0.252,2.1-0.756s0.812-1.139,0.812-1.904
	C17.778,14.427,17.508,13.792,16.985,13.288z"/>
<path fill="#FFFFFF" d="M34.376,21.382c-1.083-1.176-2.511-1.764-4.285-1.764c-0.635,0.019-1.232,0.103-1.792,0.252
	s-1.018,0.373-1.372,0.672c-0.355,0.299-0.644,0.569-0.868,0.812s-0.439,0.532-0.644,0.868h0.028v-2.24H20.29l0.028,0.756
	c0,0.504,0,2.044,0,4.621c0,2.576-0.009,5.946-0.028,10.11h5.153v-8.653c0-0.523,0.056-0.943,0.168-1.26
	c0.243-0.541,0.579-0.99,1.008-1.344c0.429-0.355,0.971-0.532,1.624-0.532c0.896,0,1.559,0.308,1.988,0.924
	c0.429,0.616,0.644,1.475,0.644,2.576v8.289H36v-8.877C36,24.293,35.459,22.557,34.376,21.382z"/>
</svg>
