<?xml version="1.0" encoding="utf-8"?>
<!-- Generator: Adobe Illustrator 17.0.1, SVG Export Plug-In . SVG Version: 6.00 Build 0)  -->
<!DOCTYPE svg PUBLIC "-//W3C//DTD SVG 1.1//EN" "http://www.w3.org/Graphics/SVG/1.1/DTD/svg11.dtd">
<svg version="1.1" id="gplus" xmlns="http://www.w3.org/2000/svg" xmlns:xlink="http://www.w3.org/1999/xlink" x="0px" y="0px"
	 width="48px" height="48px" viewBox="0 0 48 48" enable-background="new 0 0 48 48" xml:space="preserve">
<path fill="#FFFFFF" d="M24.245,32.874c-0.276,0.448-0.637,0.801-1.085,1.059c-0.448,0.258-0.93,0.448-1.447,0.568
	s-1.059,0.181-1.628,0.181c-0.62-0.017-1.231-0.095-1.834-0.233s-1.18-0.353-1.731-0.646c-0.551-0.293-0.999-0.698-1.343-1.214
	c-0.344-0.517-0.517-1.102-0.517-1.757c0-0.603,0.129-1.119,0.388-1.55c0.258-0.431,0.594-0.784,1.008-1.059
	c0.413-0.276,0.887-0.499,1.421-0.672c0.534-0.173,1.051-0.293,1.55-0.362s1.008-0.103,1.524-0.103c0.31,0,0.551,0.009,0.723,0.026
	c0.069,0.034,0.215,0.138,0.439,0.31c0.224,0.172,0.379,0.284,0.465,0.336s0.241,0.164,0.465,0.336s0.37,0.293,0.439,0.362
	s0.207,0.189,0.413,0.362s0.336,0.319,0.388,0.439c0.052,0.121,0.146,0.267,0.284,0.439c0.138,0.172,0.224,0.336,0.258,0.491
	c0.034,0.155,0.078,0.327,0.129,0.517c0.052,0.189,0.078,0.379,0.078,0.568C24.65,31.892,24.521,32.426,24.245,32.874z
	 M22.282,21.171c-0.431,0.586-1.111,0.878-2.041,0.878c-0.534-0.034-0.999-0.164-1.395-0.388c-0.396-0.224-0.766-0.543-1.111-0.956
	c-0.344-0.413-0.62-0.87-0.827-1.369s-0.37-0.999-0.491-1.498c-0.121-0.499-0.181-0.973-0.181-1.421
	c0.017-0.93,0.267-1.722,0.749-2.377c0.482-0.654,1.171-0.982,2.067-0.982c0.672-0.052,1.249,0.138,1.731,0.568
	s0.878,0.939,1.188,1.524c0.31,0.586,0.543,1.206,0.698,1.86s0.233,1.266,0.233,1.834C22.919,19.811,22.713,20.586,22.282,21.171z
	 M21.016,12.026c-0.896,0-1.8,0.095-2.713,0.284c-1.326,0.31-2.446,0.99-3.358,2.041c-0.913,1.051-1.369,2.248-1.369,3.591
	c-0.017,1.447,0.491,2.635,1.524,3.565c1.033,0.93,2.265,1.395,3.694,1.395c0.293,0,0.629-0.017,1.008-0.052
	c-0.034,0.052-0.069,0.155-0.103,0.31s-0.069,0.258-0.103,0.31c-0.034,0.052-0.06,0.138-0.077,0.258
	c-0.017,0.121-0.026,0.241-0.026,0.362c0,0.62,0.301,1.335,0.904,2.144c-0.723,0.017-1.438,0.078-2.144,0.181
	c-0.706,0.103-1.455,0.276-2.248,0.517c-0.792,0.241-1.49,0.586-2.093,1.033s-1.059,0.982-1.369,1.602
	C12.181,30.272,12,30.918,12,31.504c0,0.689,0.146,1.274,0.439,1.757s0.663,0.904,1.111,1.266s0.964,0.646,1.55,0.853
	c0.586,0.207,1.171,0.362,1.757,0.465S18.02,36,18.588,36c2.583,0,4.598-0.629,6.045-1.886c1.361-1.171,2.041-2.523,2.041-4.056
	c0-0.568-0.086-1.085-0.258-1.55c-0.172-0.465-0.379-0.87-0.62-1.214c-0.241-0.344-0.517-0.663-0.827-0.956
	c-0.31-0.293-0.62-0.56-0.93-0.801s-0.594-0.474-0.853-0.698c-0.258-0.224-0.465-0.456-0.62-0.698s-0.233-0.482-0.233-0.723
	c0.017-0.379,0.129-0.706,0.336-0.982s0.474-0.568,0.801-0.878s0.646-0.62,0.956-0.93s0.577-0.749,0.801-1.318
	s0.336-1.206,0.336-1.912c-0.017-0.844-0.207-1.653-0.568-2.428c-0.362-0.775-0.887-1.378-1.576-1.808h1.938L27.32,12h-6.304V12.026
	z"/>
<polygon fill="#FFFFFF" points="32.306,15.694 32.306,12 30.446,12 30.446,15.694 26.751,15.694 26.751,17.554 30.446,17.554 
	30.446,21.249 32.306,21.249 32.306,17.554 36,17.554 36,15.694 "/>
</svg>
