<?xml version="1.0" encoding="utf-8"?>
<!-- Generator: Adobe Illustrator 17.0.1, SVG Export Plug-In . SVG Version: 6.00 Build 0)  -->
<!DOCTYPE svg PUBLIC "-//W3C//DTD SVG 1.1//EN" "http://www.w3.org/Graphics/SVG/1.1/DTD/svg11.dtd">
<svg version="1.1" id="twitter" xmlns="http://www.w3.org/2000/svg" xmlns:xlink="http://www.w3.org/1999/xlink" x="0px" y="0px"
	 width="48px" height="48px" viewBox="0 0 48 48" enable-background="new 0 0 48 48" xml:space="preserve">
<path fill="#FFFFFF" d="M33.161,17.336c1.074-0.655,1.793-1.565,2.157-2.73c-0.965,0.582-2.002,0.983-3.113,1.201
	c-0.965-1.038-2.166-1.556-3.604-1.556c-1.347,0.018-2.503,0.501-3.468,1.447c-0.965,0.947-1.447,2.102-1.447,3.468
	c0,0.364,0.046,0.737,0.137,1.119c-2.039-0.091-3.932-0.592-5.679-1.502c-1.747-0.91-3.24-2.121-4.478-3.631
	c-0.455,0.765-0.683,1.593-0.683,2.485c0,0.856,0.2,1.638,0.601,2.348s0.937,1.292,1.611,1.747
	c-0.801-0.036-1.547-0.246-2.239-0.628v0.055c0,1.201,0.373,2.248,1.119,3.14s1.693,1.456,2.84,1.693
	c-0.437,0.109-0.874,0.164-1.311,0.164c-0.273,0-0.582-0.018-0.928-0.055c0.328,1.001,0.91,1.811,1.747,2.43
	s1.793,0.947,2.867,0.983c-1.784,1.402-3.823,2.102-6.116,2.102c-0.437,0-0.828-0.027-1.174-0.082
	c2.275,1.474,4.787,2.212,7.536,2.212c1.766,0.036,3.413-0.237,4.942-0.819s2.84-1.329,3.932-2.239
	c1.092-0.91,2.03-1.975,2.812-3.195c0.783-1.22,1.365-2.485,1.747-3.795c0.382-1.311,0.573-2.63,0.573-3.959
	c0-0.273,0-0.482,0-0.628c0.965-0.71,1.784-1.556,2.457-2.539C35.054,16.972,34.108,17.227,33.161,17.336z"/>
</svg>
