<?xml version="1.0" encoding="utf-8"?>
<!-- Generator: Adobe Illustrator 17.0.1, SVG Export Plug-In . SVG Version: 6.00 Build 0)  -->
<!DOCTYPE svg PUBLIC "-//W3C//DTD SVG 1.1//EN" "http://www.w3.org/Graphics/SVG/1.1/DTD/svg11.dtd">
<svg version="1.1" id="facebook" xmlns="http://www.w3.org/2000/svg" xmlns:xlink="http://www.w3.org/1999/xlink" x="0px" y="0px"
	 width="48px" height="48px" viewBox="0 0 48 48" enable-background="new 0 0 48 48" xml:space="preserve">
<path fill="#FFFFFF" d="M25.838,17.791c0.017-0.313,0.035-0.557,0.052-0.73c0.017-0.174,0.078-0.339,0.183-0.496
	c0.104-0.157,0.27-0.27,0.496-0.339s0.53-0.104,0.913-0.104h2.061V12h-3.287c-1.913,0-3.287,0.452-4.122,1.357
	c-0.835,0.904-1.252,2.243-1.252,4.017v2.478h-2.478V24h2.478v12h4.957V24h3.313l0.443-4.148h-3.757
	C25.839,19.852,25.839,17.791,25.838,17.791z"/>
</svg>
