<svg xmlns="http://www.w3.org/2000/svg" width="124" height="124" viewBox="0 0 124 124"><path fill="#B0C263" d="M62 0c-1.727 0-3.453.447-5 1.34l-45.033 26c-3.094 1.786-5 5.088-5 8.66v52c0 3.573 1.906 6.874 5 8.66l45.033 26c1.547.893 3.273 1.34 5 1.34s3.453-.447 5-1.34l45.033-26c3.094-1.786 5-5.088 5-8.66V36c0-3.573-1.906-6.874-5-8.66L67 1.34C65.453.447 63.727 0 62 0z"/><path d="M31.393 47.706c-.348 1.43-1.765 1.796-1.6 3.74.444.537.715 1.244 1.6 1.337 1.513.264 1.482-1.01 2.408-1.336.497-.838.813-1.857 1.333-2.673V44.5c-.222-.31-.35-.717-.266-1.336C34.142 41.82 33.64 40.5 33 39.156c-.595-1.24-1.63-2.522-1.607-4.276.572-1.208 1.697-1.865 2.94-2.404.388-1.043 2.048-.854 2.672-1.334.234-.182.206-.708.535-.802-.02-1.316-1.1-1.574-2.137-1.87-2.962.958-5.508 2.33-7.216 4.54-.26 1.075-.327 2.344-.265 3.74 1.233 3.577 3.83 5.79 3.47 10.956zm7.216 3.207c.382.15.65.417.8.802 2.96-.155 4.412-1.824 5.076-4.277.082-2.755-1.383-3.96-1.336-6.68-.14-1.297 1.136-1.178 1.068-2.403-.512-.92-1.394-1.606-2.672-1.337-.073.015-.42.495-.534.533-.16.054-.372-.04-.533 0-.493 1.203-.717 2.673-.803 4.278.38 1.577.677 3.24.802 5.077-.626 1.334-2.107 1.812-1.87 4.008zM19.903 47.17c.48.945 1.677 1.174 2.137 2.14.394 1.3.574 2.806 2.407 2.67 1.127.058.942-1.196 1.602-1.602.318-3.08-1.58-3.94-2.406-5.88.59-.39.53-1.43 1.336-1.602.64-.34 1.09-.872 1.07-1.87-.326-1.61-2.74-2.08-3.74-1.603-.13.06-.17.43-.536.266-1.333 1.605-2.754 3.12-2.405 6.412.36.177.496.57.534 1.07zm85.768 4.545c-2.37-1.24-7.578-.912-10.688-.536-4.81-.176-8.845.416-12.825 1.067-2.133 1.255-4.8 1.97-6.415 3.74-1.298.394-1.912 1.473-2.94 2.14-.998.69-1.656 1.726-2.67 2.405-2.46 3.24-4.88 6.518-8.014 9.083-2.374 3.327-5.512 5.888-9.887 7.216-1.43-.527-3.99.07-4.808-1.068.134-2.093-.145-3.776-.267-5.61-.695-2.334-1.297-4.764-1.87-7.216-.3-1.215-.63-2.4-.802-3.74-.652-.955-.17-1.93-.803-3.208-1.056-.277-1.57-1.097-2.938-1.068-1.546.21-2.284-.387-3.74-.268-1.375-.496-2.936-.804-4.543-1.068-4.67-.04-9.154.106-12.558 1.336-1.15.988-1.81 2.462-2.67 3.74.3 4.587-.134 7.722-.268 12.292.272 1.063.388 2.282.532 3.472.472.513.567 1.393.8 2.14.626.444.69 1.45 1.07 2.136.92 1.22 1.483 2.794 2.14 4.275 1.055 1.26 2.606 2.022 3.206 3.74 1.128 1.276 2.225 2.586 3.207 4.008.886.094 1.16.8 1.605 1.336 2.136.888 3.762 2.29 6.41 2.67 2.304.813 5.832.404 8.55.802.344-.37 1.163-.263 1.87-.266 4.36-1.43 7.997-3.58 12.022-5.344 3.65-2.14 6.338-5.242 9.886-7.48 4.29-4.798 8.933-9.238 12.56-14.696 2.13-1.255 3.816-2.95 6.143-4.01 1.787-.44 3.162-1.292 5.343-1.333.646-.513 2.148-.17 3.206-.268 1.186.027 1.568-.75 2.938-.533h4.275c1.8.286 2.36-.67 3.474-1.07 0-.892.867-.912.8-1.87V55.99c.18-2.052-.58-3.16-1.332-4.275zm-81.224 6.412c1.09-.082-.044.37.268 1.067-.228.853.42.827.536 1.337 4.573-.467 9.87-.33 13.89.536-.46.874-1.54 1.13-2.136 1.87-5.332.167-8.68-1.652-13.89-1.604.025-1.093-.038-2.103-1.073-2.138.38-.778 1.582-.733 2.405-1.067zm63.32.266c-1.208.036-1.837.653-2.938.8-1.213.66-2.36 1.38-3.472 2.14-1.08.7-1.938 1.624-3.207 2.135-2.333 2.475-4.235 5.38-6.412 8.018-2.368 2.44-4.722 4.895-6.946 7.48-2.29 1.448-4.497 2.983-6.146 5.075-1.308.386-1.99 1.397-3.204 1.872-1.024.672-2.248 1.14-3.21 1.87-2.2 1.093-4.514 2.074-6.945 2.938h-5.344v-2.404c.068-.78-.505-.923-.803-1.336-1.4.38-1.24 2.324-2.136 3.206-1.318-.018-2.222-.45-2.937-1.07.167-3.056 3.23-4.577 2.404-7.747-2.152-.106-2.373 1.724-3.742 2.403-.532 1.158-1.4 1.984-1.867 3.207-1.087-.54-1.733-1.584-.535-2.406.262-1.165.925-1.923 1.338-2.94.753-.667.847-2 1.602-2.67.378-.8 1.235-2.17.536-3.205-2.344.125-3.134 2.128-4.81 3.205-.248.73-.82 1.14-1.067 1.87-.628.26-.445 1.338-1.336 1.336-.04-.942-.766-1.194-.803-2.136.065-1.213 1.013-2.166 1.606-3.206.833-1.466 2.23-3.078 2.936-5.08-1.416-.697-2.712.782-3.74 1.34-.558.33-1.007.776-1.333 1.334-.56.003-1.004 1.457-1.34.804.17-1.99 2.504-2.87 1.87-4.81-.483-1.238-2.277-.713-3.204-.267v-3.742c4.563.87 10.315.55 15.498.8 1.384-.573 2.44-1.476 3.47-2.402.54.798.56 2.112.802 3.207.466.867.334 2.337.802 3.204-.07 2.387.008 4.624.533 6.413.094.352.47.42.535.802 1.76 2.247 5.405 2.61 9.62 2.404 1.928-.654 3.623-1.54 5.342-2.404 4.41-3.16 7.888-7.252 11.49-11.222 1.528-2.214 3.308-4.172 5.343-5.877 1.844-1.897 4.44-3.044 6.68-4.54 1.282-.057 1.956-.718 3.476-.538.628-.085 1.005-.42 1.87-.268.468.155 1.57-.322 1.603.268.516 1.853-1.18 1.497-1.874 2.138zm6.414-1.337c-.896.275-.416-.83-.535-1.335h.8c-.145.39.316 1.383-.265 1.336z"/></svg>