<svg xmlns="http://www.w3.org/2000/svg" width="48" height="48" viewBox="0 0 48 48"><path fill="#fff" d="M12.308 19.98h5.153V35.47H12.31zM16.985 13.288c-.523-.504-1.214-.756-2.072-.756-.86 0-1.56.252-2.1.756S12 14.428 12 15.193c0 .765.26 1.4.784 1.904s1.214.756 2.072.756h.028c.86 0 1.56-.252 2.1-.756s.812-1.14.812-1.904c-.018-.766-.288-1.4-.81-1.905zM34.376 21.382c-1.083-1.176-2.51-1.764-4.285-1.764-.634.02-1.23.103-1.79.252s-1.02.373-1.373.672c-.355.3-.644.57-.868.812s-.44.532-.645.868h.028v-2.24H20.29l.028.756v4.62c0 2.577-.01 5.947-.028 10.11h5.153v-8.652c0-.523.056-.943.168-1.26.244-.54.58-.99 1.01-1.344.428-.355.97-.532 1.623-.532.896 0 1.56.308 1.988.924.43.616.645 1.475.645 2.576v8.29H36V26.59c0-2.3-.54-4.035-1.624-5.21z"/></svg>