<svg xmlns="http://www.w3.org/2000/svg" width="48" height="48" viewBox="0 0 48 48"><path fill="#fff" d="M24.245 32.874c-.276.448-.637.8-1.085 1.06-.448.257-.93.447-1.447.567s-1.06.182-1.628.182c-.62-.017-1.23-.095-1.834-.233s-1.18-.354-1.73-.647c-.55-.293-1-.698-1.343-1.214-.344-.518-.517-1.103-.517-1.758 0-.603.13-1.12.388-1.55.258-.43.594-.784 1.008-1.06.413-.275.887-.498 1.42-.67.535-.174 1.052-.294 1.55-.363s1.01-.104 1.525-.104c.31 0 .552.01.724.026.07.034.215.138.44.31.223.172.378.284.464.336s.24.164.465.336.37.293.44.362.206.19.412.362.336.32.388.44c.052.12.146.266.284.438.138.172.224.336.258.49.034.156.078.328.13.518.05.19.077.38.077.568.018.62-.11 1.154-.387 1.602zM22.282 21.17c-.43.587-1.11.88-2.04.88-.535-.035-1-.165-1.396-.39-.396-.223-.766-.542-1.11-.955-.345-.413-.62-.87-.828-1.37s-.37-.998-.49-1.497c-.122-.5-.182-.973-.182-1.42.017-.93.267-1.723.75-2.378.48-.654 1.17-.982 2.066-.982.672-.052 1.25.138 1.73.568s.88.94 1.19 1.524c.31.586.542 1.206.697 1.86s.232 1.266.232 1.834c.017.967-.19 1.742-.62 2.327zm-1.266-9.144c-.896 0-1.8.095-2.713.284-1.326.31-2.446.99-3.358 2.04-.913 1.052-1.37 2.25-1.37 3.592-.016 1.447.492 2.635 1.525 3.565 1.033.93 2.265 1.395 3.694 1.395.293 0 .63-.017 1.008-.052-.034.052-.07.155-.103.31s-.07.258-.104.31c-.034.052-.06.138-.077.258-.018.12-.027.24-.027.362 0 .62.3 1.335.904 2.144-.723.017-1.438.078-2.144.18-.706.104-1.455.277-2.248.518-.792.24-1.49.586-2.093 1.033s-1.06.982-1.37 1.602c-.36.705-.542 1.35-.542 1.937 0 .69.146 1.274.44 1.757s.662.905 1.11 1.267.964.646 1.55.853c.586.207 1.17.362 1.757.465s1.163.155 1.73.155c2.584 0 4.6-.63 6.046-1.886 1.36-1.17 2.04-2.523 2.04-4.056 0-.568-.085-1.085-.257-1.55-.172-.465-.38-.87-.62-1.214s-.517-.663-.827-.956c-.31-.293-.62-.56-.93-.8s-.595-.475-.854-.7c-.258-.223-.465-.455-.62-.697s-.233-.48-.233-.722c.017-.38.13-.706.336-.982s.473-.568.8-.878.646-.62.956-.93.577-.75.8-1.318.337-1.206.337-1.912c-.017-.844-.207-1.653-.568-2.428-.362-.775-.887-1.378-1.576-1.808h1.937L27.32 12h-6.304v.026zM32.306 15.694V12h-1.86v3.694H26.75v1.86h3.696v3.695h1.86v-3.696H36v-1.86z"/></svg>