<svg xmlns="http://www.w3.org/2000/svg" width="48" height="48" viewBox="0 0 48 48"><path fill="#fff" d="M33.16 17.336c1.075-.655 1.794-1.565 2.158-2.73-.965.582-2.002.983-3.113 1.2-.965-1.037-2.166-1.555-3.604-1.555-1.346.02-2.502.502-3.467 1.448-.965.947-1.447 2.102-1.447 3.468 0 .364.046.737.137 1.12-2.04-.092-3.932-.593-5.68-1.503-1.746-.91-3.24-2.12-4.477-3.63-.455.764-.683 1.592-.683 2.484 0 .856.2 1.638.6 2.348s.938 1.292 1.612 1.747c-.8-.036-1.547-.246-2.24-.628v.055c0 1.2.374 2.247 1.12 3.14s1.693 1.455 2.84 1.692c-.437.11-.874.164-1.31.164-.274 0-.583-.018-.93-.055.33 1.002.91 1.812 1.748 2.43s1.793.948 2.867.984c-1.784 1.402-3.823 2.102-6.116 2.102-.437 0-.828-.027-1.174-.082 2.275 1.474 4.787 2.212 7.536 2.212 1.766.036 3.413-.237 4.942-.82s2.84-1.328 3.932-2.238c1.092-.91 2.03-1.975 2.812-3.195.783-1.22 1.365-2.485 1.747-3.795.38-1.31.572-2.63.572-3.96v-.627c.965-.71 1.784-1.555 2.457-2.538-.946.4-1.892.655-2.84.764z"/></svg>